<?xml version="1.0" encoding="UTF-8"?>
<svg id="mpv_x5F_IDR_x5F_MAINFRAME" xmlns="http://www.w3.org/2000/svg" width="64" height="64" version="1.1" xmlns:xlink="http://www.w3.org/1999/xlink" viewBox="0 0 64 64">
  <!-- mpv_solid main icon by https://github.com/recoldcut  -->
  <defs>
    <linearGradient id="GradientPurple_Solid" x1="476.81" y1="-727.33" x2="464.28" y2="-680.58" gradientTransform="translate(405.57 -710.51) rotate(60) scale(1 -1)" gradientUnits="userSpaceOnUse">
      <stop offset="0" stop-color="#af80ff"/>
      <stop offset="1" stop-color="#4e44db"/>
    </linearGradient>
    <linearGradient id="GradientPurple_Solid1" data-name="GradientPurple_Solid" x1="569.72" y1="824.32" x2="557.2" y2="871.02" gradientTransform="translate(490.09 933.73) rotate(-60) scale(1 -1)" xlink:href="#GradientPurple_Solid"/>
    <linearGradient id="GradientPurple_Solid2" data-name="GradientPurple_Solid" x1="1676.01" y1="4.05" x2="1665.41" y2="43.61" gradientTransform="translate(1684) rotate(-180) scale(1 -1)" xlink:href="#GradientPurple_Solid"/>
  </defs>
  <g id="mpv-gradient">
    <path id="Path_x5F_3" d="M7.68,54.12l38.32-22.13.59-.44,10.06,5.81-.41.54.08.05c1.64.95,1.64,3.31,0,4.25l-34.63,20c-2.28,1.32-5.09,1.32-7.37,0l-6.63-3.83c-1.64-.95-1.64-3.31,0-4.25Z" style="fill: url(#GradientPurple_Solid);"/>
    <path id="Path_x5F_2" d="M55.58,42.63l.37-.21c1.8-1.04,1.8-3.64,0-4.68L17.99,15.83l-.49-.14V4.11s.5-.08.5-.08v-.11c0-1.89,2.05-3.07,3.68-2.13l34.63,20c2.28,1.32,3.68,3.75,3.68,6.38v7.66c0,2.63-1.4,5.06-3.68,6.38l-.74.43" style="fill: url(#GradientPurple_Solid1);"/>
    <path id="Path_x5F_1" d="M22.42,2.22l-.37-.21c-1.8-1.04-4.05.26-4.05,2.34v32.08c0,2.63-1.4,5.06-3.68,6.38l-6.63,3.83c-1.64.95-3.68-.24-3.68-2.13V12c0-2.63,1.4-5.06,3.68-6.38l6.63-3.83c2.28-1.32,5.09-1.32,7.37,0l.74.43" style="fill: url(#GradientPurple_Solid2);"/>
  </g>
</svg>